<mxfile host="app.diagrams.net" modified="2023-11-18T01:40:34.953Z" agent="Mozilla/5.0 (Windows NT 10.0; Win64; x64) AppleWebKit/537.36 (KHTML, like Gecko) Chrome/119.0.0.0 Safari/537.36" etag="WIXOJRuEacImG0Q0UXwN" version="22.1.2" type="github">
  <diagram id="C5RBs43oDa-KdzZeNtuy" name="Page-1">
    <mxGraphModel dx="2291" dy="774" grid="1" gridSize="10" guides="1" tooltips="1" connect="1" arrows="1" fold="1" page="1" pageScale="1" pageWidth="1169" pageHeight="827" background="none" math="0" shadow="0">
      <root>
        <mxCell id="WIyWlLk6GJQsqaUBKTNV-0" />
        <mxCell id="WIyWlLk6GJQsqaUBKTNV-1" parent="WIyWlLk6GJQsqaUBKTNV-0" />
        <mxCell id="kc2aSsI8_Fk6eoUfhXqJ-1" value="&lt;h2&gt;Molienda Filtro&lt;/h2&gt;" style="rounded=1;whiteSpace=wrap;html=1;" parent="WIyWlLk6GJQsqaUBKTNV-1" vertex="1">
          <mxGeometry x="-450" y="785" width="110" height="80" as="geometry" />
        </mxCell>
        <mxCell id="kc2aSsI8_Fk6eoUfhXqJ-5" value="" style="endArrow=classic;html=1;rounded=1;entryX=0;entryY=0.5;entryDx=0;entryDy=0;" parent="WIyWlLk6GJQsqaUBKTNV-1" target="kc2aSsI8_Fk6eoUfhXqJ-1" edge="1">
          <mxGeometry width="50" height="50" relative="1" as="geometry">
            <mxPoint x="-580" y="825.5" as="sourcePoint" />
            <mxPoint x="-430" y="815" as="targetPoint" />
          </mxGeometry>
        </mxCell>
        <mxCell id="kc2aSsI8_Fk6eoUfhXqJ-6" value="&lt;div style=&quot;&quot;&gt;&lt;font data-font-src=&quot;https://fonts.googleapis.com/css?family=Inter&quot; face=&quot;Inter&quot;&gt;&lt;span style=&quot;font-size: 13.8889px; background-color: initial;&quot;&gt;m&lt;/span&gt;&lt;sub style=&quot;background-color: initial;&quot;&gt;1&amp;nbsp;&lt;/sub&gt;&lt;span style=&quot;font-size: 13.8889px; background-color: initial;&quot;&gt;= 20 kg/h&lt;/span&gt;&lt;/font&gt;&lt;/div&gt;" style="text;html=1;strokeColor=none;fillColor=none;align=left;verticalAlign=middle;whiteSpace=wrap;rounded=1;fontSize=20;fontFamily=Architects Daughter;" parent="WIyWlLk6GJQsqaUBKTNV-1" vertex="1">
          <mxGeometry x="-570" y="790" width="120" height="37" as="geometry" />
        </mxCell>
        <mxCell id="xLHj4A0R8umowQJ4PUIH-7" value="" style="edgeStyle=orthogonalEdgeStyle;rounded=0;orthogonalLoop=1;jettySize=auto;html=1;entryX=0;entryY=0.5;entryDx=0;entryDy=0;exitX=0.5;exitY=1;exitDx=0;exitDy=0;" parent="WIyWlLk6GJQsqaUBKTNV-1" source="ZBG1v9317UTrwhxWU_h0-0" target="xLHj4A0R8umowQJ4PUIH-6" edge="1">
          <mxGeometry relative="1" as="geometry" />
        </mxCell>
        <mxCell id="ZBG1v9317UTrwhxWU_h0-0" value="&lt;h2&gt;Fermentación&lt;/h2&gt;" style="whiteSpace=wrap;html=1;rounded=1;" parent="WIyWlLk6GJQsqaUBKTNV-1" vertex="1">
          <mxGeometry x="-330" y="621.75" width="150" height="80" as="geometry" />
        </mxCell>
        <mxCell id="lFWNT0tJYZjPT6zYefMW-1" value="&lt;div style=&quot;border-color: var(--border-color); color: rgb(0, 0, 0); font-family: &amp;quot;Architects Daughter&amp;quot;; font-style: normal; font-variant-ligatures: normal; font-variant-caps: normal; font-weight: 400; letter-spacing: normal; orphans: 2; text-indent: 0px; text-transform: none; widows: 2; word-spacing: 0px; -webkit-text-stroke-width: 0px; background-color: rgb(251, 251, 251); text-decoration-thickness: initial; text-decoration-style: initial; text-decoration-color: initial; text-align: left;&quot;&gt;&lt;font face=&quot;Inter&quot; data-font-src=&quot;https://fonts.googleapis.com/css?family=Inter&quot; style=&quot;border-color: var(--border-color);&quot;&gt;&lt;span style=&quot;font-size: 13.8889px; border-color: var(--border-color); background-color: initial;&quot;&gt;X&lt;/span&gt;&lt;span style=&quot;border-color: var(--border-color); background-color: initial; font-size: 11.5741px;&quot;&gt;w&lt;/span&gt;&lt;span style=&quot;font-size: 13.8889px; border-color: var(--border-color); background-color: initial;&quot;&gt;&lt;span&gt;&amp;nbsp;&lt;/span&gt;= 0.9671&lt;/span&gt;&lt;/font&gt;&lt;/div&gt;&lt;div style=&quot;border-color: var(--border-color); color: rgb(0, 0, 0); font-family: &amp;quot;Architects Daughter&amp;quot;; font-style: normal; font-variant-ligatures: normal; font-variant-caps: normal; font-weight: 400; letter-spacing: normal; orphans: 2; text-indent: 0px; text-transform: none; widows: 2; word-spacing: 0px; -webkit-text-stroke-width: 0px; background-color: rgb(251, 251, 251); text-decoration-thickness: initial; text-decoration-style: initial; text-decoration-color: initial; text-align: left;&quot;&gt;&lt;font face=&quot;Inter&quot; data-font-src=&quot;https://fonts.googleapis.com/css?family=Inter&quot; style=&quot;border-color: var(--border-color);&quot;&gt;&lt;span style=&quot;font-size: 13.8889px; border-color: var(--border-color); background-color: initial;&quot;&gt;X&lt;/span&gt;&lt;span style=&quot;border-color: var(--border-color); background-color: initial;&quot;&gt;&lt;span style=&quot;font-size: 11.5741px;&quot;&gt;a&lt;/span&gt;&lt;span style=&quot;font-size: 13.8889px;&quot;&gt;&amp;nbsp;= 0.0329&lt;/span&gt;&lt;/span&gt;&lt;/font&gt;&lt;/div&gt;" style="text;whiteSpace=wrap;html=1;" parent="WIyWlLk6GJQsqaUBKTNV-1" vertex="1">
          <mxGeometry x="-570" y="827" width="90" height="60" as="geometry" />
        </mxCell>
        <mxCell id="xLHj4A0R8umowQJ4PUIH-0" value="" style="edgeStyle=orthogonalEdgeStyle;rounded=0;orthogonalLoop=1;jettySize=auto;html=1;entryX=0;entryY=0.5;entryDx=0;entryDy=0;exitX=0.5;exitY=0;exitDx=0;exitDy=0;" parent="WIyWlLk6GJQsqaUBKTNV-1" source="kc2aSsI8_Fk6eoUfhXqJ-1" target="ZBG1v9317UTrwhxWU_h0-0" edge="1">
          <mxGeometry relative="1" as="geometry">
            <mxPoint x="-310" y="825" as="sourcePoint" />
            <mxPoint x="-235" y="825.7647058823529" as="targetPoint" />
          </mxGeometry>
        </mxCell>
        <mxCell id="xLHj4A0R8umowQJ4PUIH-9" value="" style="edgeStyle=orthogonalEdgeStyle;rounded=0;orthogonalLoop=1;jettySize=auto;html=1;exitX=0.5;exitY=0;exitDx=0;exitDy=0;entryX=0;entryY=0.5;entryDx=0;entryDy=0;" parent="WIyWlLk6GJQsqaUBKTNV-1" source="xLHj4A0R8umowQJ4PUIH-6" target="xLHj4A0R8umowQJ4PUIH-8" edge="1">
          <mxGeometry relative="1" as="geometry" />
        </mxCell>
        <mxCell id="xLHj4A0R8umowQJ4PUIH-6" value="&lt;h2&gt;Destilador&lt;/h2&gt;" style="whiteSpace=wrap;html=1;rounded=1;" parent="WIyWlLk6GJQsqaUBKTNV-1" vertex="1">
          <mxGeometry x="-130" y="725.25" width="100" height="280" as="geometry" />
        </mxCell>
        <mxCell id="xLHj4A0R8umowQJ4PUIH-15" value="" style="edgeStyle=orthogonalEdgeStyle;rounded=0;orthogonalLoop=1;jettySize=auto;html=1;exitX=1;exitY=0.5;exitDx=0;exitDy=0;entryX=0.5;entryY=0;entryDx=0;entryDy=0;" parent="WIyWlLk6GJQsqaUBKTNV-1" source="xLHj4A0R8umowQJ4PUIH-8" target="xLHj4A0R8umowQJ4PUIH-14" edge="1">
          <mxGeometry relative="1" as="geometry" />
        </mxCell>
        <mxCell id="xLHj4A0R8umowQJ4PUIH-8" value="&lt;h2&gt;Condensador&lt;/h2&gt;" style="whiteSpace=wrap;html=1;rounded=1;" parent="WIyWlLk6GJQsqaUBKTNV-1" vertex="1">
          <mxGeometry x="20" y="621.75" width="130" height="80" as="geometry" />
        </mxCell>
        <mxCell id="xLHj4A0R8umowQJ4PUIH-13" value="" style="endArrow=classic;html=1;rounded=0;exitX=0.5;exitY=1;exitDx=0;exitDy=0;" parent="WIyWlLk6GJQsqaUBKTNV-1" source="xLHj4A0R8umowQJ4PUIH-6" edge="1">
          <mxGeometry width="50" height="50" relative="1" as="geometry">
            <mxPoint x="85" y="1020" as="sourcePoint" />
            <mxPoint y="1050" as="targetPoint" />
            <Array as="points">
              <mxPoint x="-80" y="1050" />
            </Array>
          </mxGeometry>
        </mxCell>
        <mxCell id="xLHj4A0R8umowQJ4PUIH-14" value="&lt;h2&gt;Evaporador&lt;/h2&gt;" style="whiteSpace=wrap;html=1;rounded=1;" parent="WIyWlLk6GJQsqaUBKTNV-1" vertex="1">
          <mxGeometry x="150" y="761.75" width="130" height="80" as="geometry" />
        </mxCell>
        <mxCell id="xLHj4A0R8umowQJ4PUIH-18" value="" style="endArrow=classic;html=1;rounded=0;" parent="WIyWlLk6GJQsqaUBKTNV-1" source="xLHj4A0R8umowQJ4PUIH-14" edge="1">
          <mxGeometry width="50" height="50" relative="1" as="geometry">
            <mxPoint x="290" y="851.75" as="sourcePoint" />
            <mxPoint x="350" y="801.75" as="targetPoint" />
          </mxGeometry>
        </mxCell>
        <mxCell id="xLHj4A0R8umowQJ4PUIH-19" value="" style="endArrow=classic;html=1;rounded=0;" parent="WIyWlLk6GJQsqaUBKTNV-1" source="xLHj4A0R8umowQJ4PUIH-14" edge="1">
          <mxGeometry width="50" height="50" relative="1" as="geometry">
            <mxPoint x="220" y="891.75" as="sourcePoint" />
            <mxPoint x="215" y="911.75" as="targetPoint" />
          </mxGeometry>
        </mxCell>
        <mxCell id="xLHj4A0R8umowQJ4PUIH-20" value="" style="endArrow=classic;html=1;rounded=0;" parent="WIyWlLk6GJQsqaUBKTNV-1" source="kc2aSsI8_Fk6eoUfhXqJ-1" edge="1">
          <mxGeometry width="50" height="50" relative="1" as="geometry">
            <mxPoint x="-395" y="915" as="sourcePoint" />
            <mxPoint x="-395" y="935.7106781186548" as="targetPoint" />
          </mxGeometry>
        </mxCell>
        <mxCell id="xLHj4A0R8umowQJ4PUIH-21" value="&lt;div style=&quot;&quot;&gt;&lt;span style=&quot;font-size: 13.8889px; font-family: Inter; background-color: initial;&quot;&gt;70°C a 80°C&lt;/span&gt;&lt;br&gt;&lt;/div&gt;" style="text;html=1;strokeColor=none;fillColor=none;align=left;verticalAlign=middle;whiteSpace=wrap;rounded=1;fontSize=20;fontFamily=Architects Daughter;" parent="WIyWlLk6GJQsqaUBKTNV-1" vertex="1">
          <mxGeometry x="-125" y="873" width="90" height="28.75" as="geometry" />
        </mxCell>
        <mxCell id="xLHj4A0R8umowQJ4PUIH-22" value="&lt;div style=&quot;&quot;&gt;&lt;font face=&quot;Inter&quot;&gt;&lt;span style=&quot;font-size: 13.8889px;&quot;&gt;20°C a 25°C&lt;/span&gt;&lt;/font&gt;&lt;/div&gt;" style="text;html=1;strokeColor=none;fillColor=none;align=center;verticalAlign=middle;whiteSpace=wrap;rounded=1;fontSize=20;fontFamily=Architects Daughter;" parent="WIyWlLk6GJQsqaUBKTNV-1" vertex="1">
          <mxGeometry x="40" y="658.25" width="90" height="43.5" as="geometry" />
        </mxCell>
        <mxCell id="xLHj4A0R8umowQJ4PUIH-23" value="&lt;div style=&quot;&quot;&gt;&lt;font face=&quot;Inter&quot;&gt;&lt;span style=&quot;font-size: 13.8889px;&quot;&gt;70°C a 80°C&lt;/span&gt;&lt;/font&gt;&lt;/div&gt;" style="text;html=1;strokeColor=none;fillColor=none;align=left;verticalAlign=middle;whiteSpace=wrap;rounded=1;fontSize=20;fontFamily=Architects Daughter;" parent="WIyWlLk6GJQsqaUBKTNV-1" vertex="1">
          <mxGeometry x="170" y="806.75" width="90" height="30" as="geometry" />
        </mxCell>
        <mxCell id="xLHj4A0R8umowQJ4PUIH-24" value="&lt;div style=&quot;&quot;&gt;&lt;font face=&quot;Inter&quot;&gt;&lt;span style=&quot;font-size: 13.8889px;&quot;&gt;1 atm&lt;/span&gt;&lt;/font&gt;&lt;/div&gt;" style="text;html=1;strokeColor=none;fillColor=none;align=center;verticalAlign=middle;whiteSpace=wrap;rounded=1;fontSize=20;fontFamily=Architects Daughter;" parent="WIyWlLk6GJQsqaUBKTNV-1" vertex="1">
          <mxGeometry x="40" y="701.75" width="90" height="23.5" as="geometry" />
        </mxCell>
        <mxCell id="iKVPHCvHV1Rb0YSK3V7D-0" value="&lt;div style=&quot;font-size: 13px;&quot;&gt;&lt;font style=&quot;font-size: 13px;&quot; data-font-src=&quot;https://fonts.googleapis.com/css?family=Inter&quot; face=&quot;Inter&quot;&gt;&lt;span style=&quot;background-color: initial;&quot;&gt;m&lt;sub&gt;3&lt;/sub&gt;&lt;/span&gt;&lt;sub style=&quot;background-color: initial;&quot;&gt;&amp;nbsp;&lt;/sub&gt;&lt;span style=&quot;background-color: initial;&quot;&gt;= 20 kg/h&lt;/span&gt;&lt;/font&gt;&lt;/div&gt;" style="text;html=1;strokeColor=none;fillColor=none;align=left;verticalAlign=middle;whiteSpace=wrap;rounded=1;fontSize=20;fontFamily=Architects Daughter;" vertex="1" parent="WIyWlLk6GJQsqaUBKTNV-1">
          <mxGeometry x="-390" y="870" width="100" height="50" as="geometry" />
        </mxCell>
        <mxCell id="iKVPHCvHV1Rb0YSK3V7D-1" value="&lt;div style=&quot;font-size: 13px;&quot;&gt;&lt;font style=&quot;font-size: 13px;&quot; data-font-src=&quot;https://fonts.googleapis.com/css?family=Inter&quot; face=&quot;Inter&quot;&gt;&lt;span style=&quot;background-color: initial;&quot;&gt;m&lt;sub&gt;2&lt;/sub&gt;&lt;/span&gt;&lt;sub style=&quot;background-color: initial;&quot;&gt;&amp;nbsp;&lt;/sub&gt;&lt;span style=&quot;background-color: initial;&quot;&gt;= 20 kg/h&lt;/span&gt;&lt;/font&gt;&lt;/div&gt;" style="text;html=1;strokeColor=none;fillColor=none;align=left;verticalAlign=middle;whiteSpace=wrap;rounded=1;fontSize=20;fontFamily=Architects Daughter;" vertex="1" parent="WIyWlLk6GJQsqaUBKTNV-1">
          <mxGeometry x="-490" y="640" width="100" height="50" as="geometry" />
        </mxCell>
        <mxCell id="iKVPHCvHV1Rb0YSK3V7D-3" value="&lt;div style=&quot;font-size: 13px;&quot;&gt;&lt;font style=&quot;font-size: 13px;&quot; data-font-src=&quot;https://fonts.googleapis.com/css?family=Inter&quot; face=&quot;Inter&quot;&gt;&lt;span style=&quot;background-color: initial;&quot;&gt;m&lt;sub&gt;4&lt;/sub&gt;&lt;/span&gt;&lt;sub style=&quot;background-color: initial;&quot;&gt;&amp;nbsp;&lt;/sub&gt;&lt;span style=&quot;background-color: initial;&quot;&gt;= 20 kg/h&lt;/span&gt;&lt;/font&gt;&lt;/div&gt;" style="text;html=1;strokeColor=none;fillColor=none;align=left;verticalAlign=middle;whiteSpace=wrap;rounded=1;fontSize=20;fontFamily=Architects Daughter;" vertex="1" parent="WIyWlLk6GJQsqaUBKTNV-1">
          <mxGeometry x="-245" y="870" width="100" height="50" as="geometry" />
        </mxCell>
        <mxCell id="iKVPHCvHV1Rb0YSK3V7D-4" value="&lt;div style=&quot;font-size: 13px;&quot;&gt;&lt;font style=&quot;font-size: 13px;&quot; data-font-src=&quot;https://fonts.googleapis.com/css?family=Inter&quot; face=&quot;Inter&quot;&gt;&lt;span style=&quot;background-color: initial;&quot;&gt;m&lt;sub&gt;5&lt;/sub&gt;&lt;/span&gt;&lt;span style=&quot;background-color: initial;&quot;&gt;= 20 kg/h&lt;/span&gt;&lt;/font&gt;&lt;/div&gt;" style="text;html=1;strokeColor=none;fillColor=none;align=left;verticalAlign=middle;whiteSpace=wrap;rounded=1;fontSize=20;fontFamily=Architects Daughter;" vertex="1" parent="WIyWlLk6GJQsqaUBKTNV-1">
          <mxGeometry x="-80" y="1050" width="100" height="50" as="geometry" />
        </mxCell>
        <mxCell id="iKVPHCvHV1Rb0YSK3V7D-5" value="&lt;div style=&quot;font-size: 13px;&quot;&gt;&lt;font style=&quot;font-size: 13px;&quot; data-font-src=&quot;https://fonts.googleapis.com/css?family=Inter&quot; face=&quot;Inter&quot;&gt;&lt;span style=&quot;background-color: initial;&quot;&gt;m&lt;sub&gt;6&lt;/sub&gt;&lt;/span&gt;&lt;sub style=&quot;background-color: initial;&quot;&gt;&amp;nbsp;&lt;/sub&gt;&lt;span style=&quot;background-color: initial;&quot;&gt;= 20 kg/h&lt;/span&gt;&lt;/font&gt;&lt;/div&gt;" style="text;html=1;strokeColor=none;fillColor=none;align=left;verticalAlign=middle;whiteSpace=wrap;rounded=1;fontSize=20;fontFamily=Architects Daughter;" vertex="1" parent="WIyWlLk6GJQsqaUBKTNV-1">
          <mxGeometry x="-80" y="608.25" width="100" height="50" as="geometry" />
        </mxCell>
        <mxCell id="iKVPHCvHV1Rb0YSK3V7D-6" value="&lt;div style=&quot;font-size: 13px;&quot;&gt;&lt;font style=&quot;font-size: 13px;&quot; data-font-src=&quot;https://fonts.googleapis.com/css?family=Inter&quot; face=&quot;Inter&quot;&gt;&lt;span style=&quot;background-color: initial;&quot;&gt;m&lt;sub&gt;7&lt;/sub&gt;&lt;/span&gt;&lt;sub style=&quot;background-color: initial;&quot;&gt;&amp;nbsp;&lt;/sub&gt;&lt;span style=&quot;background-color: initial;&quot;&gt;= 20 kg/h&lt;/span&gt;&lt;/font&gt;&lt;/div&gt;" style="text;html=1;strokeColor=none;fillColor=none;align=left;verticalAlign=middle;whiteSpace=wrap;rounded=1;fontSize=20;fontFamily=Architects Daughter;" vertex="1" parent="WIyWlLk6GJQsqaUBKTNV-1">
          <mxGeometry x="220" y="650" width="100" height="50" as="geometry" />
        </mxCell>
        <mxCell id="iKVPHCvHV1Rb0YSK3V7D-7" value="&lt;div style=&quot;font-size: 13px;&quot;&gt;&lt;font style=&quot;font-size: 13px;&quot; data-font-src=&quot;https://fonts.googleapis.com/css?family=Inter&quot; face=&quot;Inter&quot;&gt;&lt;span style=&quot;background-color: initial;&quot;&gt;m&lt;sub&gt;8&lt;/sub&gt;&lt;/span&gt;&lt;sub style=&quot;background-color: initial;&quot;&gt;&amp;nbsp;&lt;/sub&gt;&lt;span style=&quot;background-color: initial;&quot;&gt;= 20 kg/h&lt;/span&gt;&lt;/font&gt;&lt;/div&gt;" style="text;html=1;strokeColor=none;fillColor=none;align=left;verticalAlign=middle;whiteSpace=wrap;rounded=1;fontSize=20;fontFamily=Architects Daughter;" vertex="1" parent="WIyWlLk6GJQsqaUBKTNV-1">
          <mxGeometry x="360" y="756.75" width="100" height="50" as="geometry" />
        </mxCell>
        <mxCell id="iKVPHCvHV1Rb0YSK3V7D-8" value="&lt;div style=&quot;font-size: 13px;&quot;&gt;&lt;font style=&quot;font-size: 13px;&quot; data-font-src=&quot;https://fonts.googleapis.com/css?family=Inter&quot; face=&quot;Inter&quot;&gt;&lt;span style=&quot;background-color: initial;&quot;&gt;m&lt;sub&gt;9&lt;/sub&gt;&lt;/span&gt;&lt;sub style=&quot;background-color: initial;&quot;&gt;&amp;nbsp;&lt;/sub&gt;&lt;span style=&quot;background-color: initial;&quot;&gt;= 20 kg/h&lt;/span&gt;&lt;/font&gt;&lt;/div&gt;" style="text;html=1;strokeColor=none;fillColor=none;align=left;verticalAlign=middle;whiteSpace=wrap;rounded=1;fontSize=20;fontFamily=Architects Daughter;" vertex="1" parent="WIyWlLk6GJQsqaUBKTNV-1">
          <mxGeometry x="220" y="851.75" width="100" height="50" as="geometry" />
        </mxCell>
      </root>
    </mxGraphModel>
  </diagram>
</mxfile>
